<?xml version="1.0" encoding="UTF-8"?>
<svg xmlns="http://www.w3.org/2000/svg" viewBox="0 0 600 280" width="600" height="280">
<g id="surface1" transform="translate(-630 -407)">
<path style=" stroke:none;fill-rule:nonzero;fill:rgb(0%,0%,0%);fill-opacity:1;" d="M 1109.691406 549.453125 C 1109.691406 560.679688 1106.753906 569.652344 1100.886719 576.386719 C 1095.015625 583.121094 1086.988281 586.492188 1076.800781 586.492188 C 1070.238281 586.492188 1064.453125 584.933594 1059.445312 581.828125 C 1054.4375 578.71875 1050.59375 574.40625 1047.921875 568.875 C 1045.242188 563.351562 1043.90625 556.878906 1043.90625 549.453125 L 1043.90625 479.523438 L 1025.515625 479.523438 L 1025.515625 550.230469 C 1025.515625 560.765625 1027.671875 570.042969 1031.992188 578.070312 C 1036.308594 586.101562 1042.390625 592.40625 1050.25 596.976562 C 1058.105469 601.550781 1066.957031 603.84375 1076.800781 603.84375 C 1086.988281 603.84375 1095.921875 601.597656 1103.605469 597.109375 C 1111.285156 592.621094 1117.289062 586.320312 1121.605469 578.199219 C 1125.921875 570.085938 1128.082031 560.765625 1128.082031 550.230469 L 1128.082031 479.523438 L 1109.691406 479.523438 "/>
<path style=" stroke:none;fill-rule:nonzero;fill:rgb(0%,0%,0%);fill-opacity:1;" d="M 775.523438 483.796875 C 767.667969 479.222656 758.820312 476.933594 748.976562 476.933594 C 738.789062 476.933594 729.855469 479.179688 722.167969 483.667969 C 714.488281 488.15625 708.488281 494.453125 704.167969 502.570312 C 699.855469 510.6875 697.695312 520.011719 697.695312 530.546875 L 697.695312 601.253906 L 716.082031 601.253906 L 716.082031 531.320312 C 716.082031 520.097656 719.019531 511.121094 724.890625 504.386719 C 730.757812 497.652344 738.789062 494.285156 748.976562 494.285156 C 755.539062 494.285156 761.324219 495.839844 766.328125 498.949219 C 771.339844 502.054688 775.179688 506.367188 777.855469 511.898438 C 780.53125 517.421875 781.871094 523.894531 781.871094 531.320312 L 781.871094 601.253906 L 800.257812 601.253906 L 800.257812 530.546875 C 800.257812 520.011719 798.101562 510.730469 793.78125 502.703125 C 789.46875 494.671875 783.382812 488.367188 775.523438 483.796875 "/>
<path style=" stroke:none;fill-rule:nonzero;fill:rgb(0%,0%,0%);fill-opacity:1;" d="M 1204.953125 538.703125 C 1199.773438 536.027344 1194.335938 533.871094 1188.636719 532.230469 C 1182.9375 530.589844 1177.539062 528.949219 1172.449219 527.308594 C 1167.355469 525.667969 1163.164062 523.511719 1159.890625 520.832031 C 1156.605469 518.15625 1154.964844 514.488281 1154.964844 509.828125 C 1154.964844 504.992188 1156.996094 501.066406 1161.050781 498.039062 C 1165.109375 495.019531 1171.023438 493.507812 1178.792969 493.507812 C 1185.527344 493.507812 1191.613281 494.804688 1197.054688 497.394531 C 1202.492188 499.980469 1206.9375 503.609375 1210.390625 508.273438 L 1222.308594 496.359375 C 1217.816406 489.972656 1211.855469 485.132812 1204.433594 481.851562 C 1197.007812 478.578125 1188.722656 476.933594 1179.570312 476.933594 C 1170.765625 476.933594 1163.257812 478.359375 1157.039062 481.207031 C 1150.820312 484.054688 1145.984375 488.027344 1142.535156 493.121094 C 1139.078125 498.214844 1137.355469 504.214844 1137.355469 511.121094 C 1137.355469 518.546875 1138.996094 524.460938 1142.273438 528.863281 C 1145.554688 533.265625 1149.742188 536.722656 1154.835938 539.222656 C 1159.929688 541.726562 1165.324219 543.800781 1171.023438 545.4375 C 1176.722656 547.078125 1182.164062 548.804688 1187.34375 550.617188 C 1192.523438 552.433594 1196.707031 554.761719 1199.902344 557.609375 C 1203.097656 560.460938 1204.695312 564.476562 1204.695312 569.652344 C 1204.695312 575.183594 1202.40625 579.496094 1197.832031 582.605469 C 1193.253906 585.710938 1186.996094 587.269531 1179.054688 587.269531 C 1171.453125 587.269531 1164.589844 585.84375 1158.464844 582.992188 C 1152.332031 580.144531 1146.847656 575.785156 1142.015625 569.914062 L 1130.101562 581.828125 C 1133.898438 586.320312 1138.261719 590.203125 1143.183594 593.480469 C 1148.101562 596.765625 1153.582031 599.308594 1159.628906 601.121094 C 1165.671875 602.933594 1171.972656 603.84375 1178.535156 603.84375 C 1192.003906 603.84375 1202.664062 600.605469 1210.523438 594.128906 C 1218.375 587.652344 1222.308594 578.976562 1222.308594 568.097656 C 1222.308594 560.332031 1220.710938 554.160156 1217.515625 549.582031 C 1214.316406 545.007812 1210.136719 541.382812 1204.953125 538.703125 "/>
<path style=" stroke:none;fill-rule:nonzero;fill:rgb(0%,0%,0%);fill-opacity:1;" d="M 998.859375 525.902344 C 998.996094 526.304688 999.128906 526.703125 999.25 527.113281 C 999.347656 527.410156 999.4375 527.710938 999.519531 528.019531 C 999.617188 528.351562 999.707031 528.679688 999.789062 529.023438 C 999.886719 529.363281 999.96875 529.703125 1000.035156 530.042969 C 1000.136719 530.402344 1000.214844 530.773438 1000.289062 531.140625 C 1000.359375 531.480469 1000.429688 531.824219 1000.476562 532.171875 C 1000.515625 532.3125 1000.546875 532.453125 1000.558594 532.59375 C 1000.597656 532.773438 1000.628906 532.953125 1000.660156 533.132812 C 1000.667969 533.171875 1000.675781 533.210938 1000.675781 533.253906 C 1000.75 533.683594 1000.808594 534.113281 1000.871094 534.550781 C 1000.890625 534.722656 1000.90625 534.902344 1000.929688 535.074219 C 1000.976562 535.484375 1001.019531 535.902344 1001.058594 536.324219 C 1001.078125 536.492188 1001.089844 536.660156 1001.097656 536.832031 C 1001.109375 536.933594 1001.117188 537.035156 1001.117188 537.140625 C 1001.148438 537.464844 1001.167969 537.78125 1001.175781 538.101562 C 1001.199219 538.320312 1001.199219 538.542969 1001.207031 538.761719 C 1001.230469 539.28125 1001.238281 539.820312 1001.238281 540.351562 L 1001.238281 540.363281 C 1001.238281 540.902344 1001.230469 541.433594 1001.207031 541.964844 C 1001.199219 542.441406 1001.167969 542.921875 1001.136719 543.394531 C 1001.128906 543.53125 1001.117188 543.671875 1001.109375 543.8125 C 1001.078125 544.253906 1001.039062 544.691406 1000.988281 545.121094 C 1000.9375 545.652344 1000.871094 546.171875 1000.796875 546.679688 C 1000.738281 547.09375 1000.675781 547.492188 1000.609375 547.894531 C 1000.578125 548.082031 1000.546875 548.273438 1000.507812 548.460938 C 1000.367188 549.273438 1000.199219 550.0625 1000.007812 550.851562 C 999.949219 551.121094 999.878906 551.394531 999.808594 551.660156 C 999.71875 552.019531 999.617188 552.382812 999.519531 552.742188 C 999.308594 553.453125 999.097656 554.152344 998.859375 554.839844 C 998.679688 555.402344 998.476562 555.953125 998.257812 556.503906 C 998.050781 557.050781 997.828125 557.59375 997.597656 558.121094 C 997.367188 558.664062 997.128906 559.191406 996.878906 559.722656 C 996.371094 560.773438 995.828125 561.800781 995.257812 562.8125 C 994.976562 563.3125 994.675781 563.8125 994.359375 564.300781 C 993.855469 565.101562 993.339844 565.882812 992.789062 566.640625 C 991.96875 567.792969 991.097656 568.894531 990.175781 569.953125 C 989.867188 570.3125 989.558594 570.652344 989.238281 571.003906 C 988.917969 571.351562 988.597656 571.691406 988.269531 572.023438 C 987.757812 572.542969 987.226562 573.050781 986.699219 573.550781 C 986.15625 574.054688 985.609375 574.535156 985.046875 575 C 977.199219 581.582031 967.066406 585.550781 956.039062 585.550781 C 945.636719 585.550781 936.039062 582.019531 928.398438 576.082031 C 925.9375 574.191406 923.6875 572.03125 921.667969 569.671875 C 918.308594 565.734375 915.597656 561.203125 913.738281 556.261719 C 913.609375 555.953125 913.496094 555.652344 913.398438 555.332031 C 913.277344 555.019531 913.179688 554.710938 913.078125 554.394531 C 912.976562 554.082031 912.878906 553.761719 912.777344 553.441406 C 912.25 551.703125 911.816406 549.902344 911.507812 548.074219 C 911.457031 547.8125 911.417969 547.5625 911.378906 547.304688 C 911.335938 547.023438 911.296875 546.730469 911.257812 546.453125 C 911.21875 546.152344 911.175781 545.863281 911.148438 545.5625 C 911.109375 545.230469 911.070312 544.902344 911.039062 544.570312 L 911.039062 544.492188 C 911.007812 544.160156 910.976562 543.84375 910.957031 543.511719 C 910.890625 542.480469 910.847656 541.453125 910.847656 540.402344 L 910.847656 540.363281 C 910.839844 529.203125 906.757812 518.984375 900.027344 511.101562 C 899.699219 511.722656 899.378906 512.34375 899.078125 512.984375 C 898.859375 513.441406 898.636719 513.910156 898.429688 514.371094 C 898.214844 514.84375 898.007812 515.3125 897.808594 515.78125 C 897.371094 516.824219 896.949219 517.894531 896.566406 518.972656 C 896.429688 519.351562 896.296875 519.730469 896.167969 520.113281 C 896.097656 520.292969 896.039062 520.484375 895.976562 520.671875 C 895.875 520.972656 895.777344 521.28125 895.691406 521.59375 C 895.660156 521.671875 895.636719 521.753906 895.609375 521.839844 C 895.367188 522.621094 895.148438 523.414062 894.9375 524.203125 C 894.898438 524.332031 894.867188 524.460938 894.835938 524.59375 C 894.609375 525.492188 894.390625 526.402344 894.195312 527.3125 C 894.148438 527.542969 894.109375 527.773438 894.058594 528.003906 C 893.878906 528.910156 893.714844 529.832031 893.578125 530.761719 C 893.507812 531.191406 893.449219 531.632812 893.398438 532.074219 C 893.199219 533.542969 893.050781 535.023438 892.96875 536.523438 C 892.949219 536.839844 892.929688 537.164062 892.917969 537.480469 C 892.898438 537.902344 892.875 538.320312 892.871094 538.75 C 892.859375 539.28125 892.847656 539.820312 892.847656 540.363281 L 892.847656 540.414062 C 892.847656 540.933594 892.859375 541.441406 892.871094 541.953125 C 892.875 542.363281 892.890625 542.78125 892.90625 543.191406 C 892.929688 543.53125 892.949219 543.875 892.96875 544.210938 C 893.007812 544.992188 893.070312 545.761719 893.148438 546.53125 C 893.238281 547.542969 893.367188 548.554688 893.515625 549.550781 C 893.558594 549.875 893.609375 550.183594 893.65625 550.492188 C 893.789062 551.324219 893.9375 552.140625 894.097656 552.953125 C 894.191406 553.351562 894.269531 553.761719 894.359375 554.164062 C 894.46875 554.640625 894.570312 555.101562 894.6875 555.5625 C 894.769531 555.902344 894.855469 556.234375 894.949219 556.570312 C 895.058594 556.992188 895.179688 557.410156 895.289062 557.832031 C 895.449219 558.394531 895.617188 558.953125 895.796875 559.503906 C 895.871094 559.703125 895.929688 559.914062 895.996094 560.113281 C 896.136719 560.523438 896.277344 560.941406 896.417969 561.351562 C 896.828125 562.5625 897.289062 563.753906 897.796875 564.921875 C 897.835938 565.003906 897.867188 565.09375 897.910156 565.183594 C 898.378906 566.3125 898.898438 567.433594 899.457031 568.535156 C 899.648438 568.921875 899.847656 569.300781 900.046875 569.683594 C 900.25 570.0625 900.449219 570.433594 900.648438 570.800781 C 901.058594 571.542969 901.476562 572.273438 901.917969 573.003906 C 902.117188 573.363281 902.347656 573.722656 902.566406 574.082031 C 901.789062 574.78125 900.976562 575.460938 900.148438 576.101562 C 892.488281 582.050781 882.878906 585.601562 872.457031 585.601562 C 847.539062 585.601562 827.257812 565.320312 827.257812 540.402344 C 827.257812 515.480469 847.539062 495.214844 872.457031 495.214844 C 882.855469 495.214844 892.457031 498.753906 900.109375 504.679688 C 900.949219 505.332031 901.757812 506.011719 902.546875 506.722656 C 904.078125 508.074219 905.507812 509.542969 906.835938 511.09375 C 909.910156 514.683594 912.429688 518.761719 914.238281 523.203125 C 916.4375 528.492188 917.648438 534.292969 917.65625 540.363281 L 917.65625 540.402344 C 917.667969 551.5625 921.75 561.792969 928.476562 569.671875 C 930.089844 566.625 931.4375 563.421875 932.53125 560.09375 C 934.558594 553.894531 935.65625 547.28125 935.65625 540.402344 C 935.65625 533.503906 934.558594 526.863281 932.507812 520.652344 C 931.417969 517.332031 930.058594 514.132812 928.457031 511.082031 C 927.675781 509.59375 926.835938 508.132812 925.929688 506.710938 C 926.308594 506.375 926.710938 506.03125 927.109375 505.703125 C 927.277344 505.5625 927.449219 505.414062 927.628906 505.273438 C 935.398438 498.972656 945.277344 495.191406 956.039062 495.191406 C 963.417969 495.191406 970.378906 496.972656 976.527344 500.101562 C 977.410156 500.554688 978.269531 501.035156 979.117188 501.53125 C 979.570312 501.800781 980.019531 502.082031 980.457031 502.363281 C 980.929688 502.664062 981.390625 502.972656 981.847656 503.292969 C 982.335938 503.632812 982.816406 503.984375 983.289062 504.34375 C 983.796875 504.710938 984.289062 505.101562 984.777344 505.519531 C 985.058594 505.734375 985.335938 505.972656 985.609375 506.222656 C 985.847656 506.421875 986.097656 506.632812 986.335938 506.863281 C 986.367188 506.882812 986.398438 506.902344 986.417969 506.941406 C 986.6875 507.171875 986.949219 507.421875 987.207031 507.679688 C 988 508.433594 988.757812 509.210938 989.488281 510.011719 C 990.015625 510.582031 990.527344 511.171875 991.007812 511.773438 C 991.210938 512.011719 991.410156 512.253906 991.589844 512.503906 C 991.675781 512.613281 991.769531 512.710938 991.839844 512.820312 C 992.039062 513.070312 992.230469 513.3125 992.410156 513.574219 C 992.578125 513.792969 992.738281 514.011719 992.890625 514.242188 C 993.109375 514.535156 993.316406 514.832031 993.507812 515.132812 C 993.589844 515.230469 993.65625 515.332031 993.71875 515.441406 C 993.886719 515.703125 994.058594 515.953125 994.230469 516.222656 C 994.898438 517.28125 995.535156 518.375 996.117188 519.5 C 996.375 520.003906 996.636719 520.511719 996.878906 521.023438 C 997.109375 521.503906 997.335938 521.992188 997.546875 522.492188 C 997.589844 522.59375 997.636719 522.703125 997.675781 522.800781 C 997.871094 523.253906 998.058594 523.714844 998.230469 524.164062 C 998.449219 524.734375 998.65625 525.3125 998.859375 525.902344 M 998.128906 493.222656 C 986.949219 483.234375 972.195312 477.164062 956.039062 477.164062 C 941.535156 477.164062 928.1875 482.050781 917.53125 490.253906 C 916.398438 491.121094 915.289062 492.035156 914.230469 492.980469 C 913.15625 492.042969 912.046875 491.132812 910.917969 490.261719 C 900.269531 482.074219 886.929688 477.214844 872.457031 477.214844 C 837.558594 477.214844 809.257812 505.503906 809.257812 540.402344 C 809.257812 575.300781 837.558594 603.601562 872.457031 603.601562 C 886.957031 603.601562 900.316406 598.714844 910.976562 590.503906 C 912.109375 589.632812 913.199219 588.730469 914.257812 587.792969 C 925.390625 597.621094 940.015625 603.582031 956.039062 603.582031 C 962.089844 603.582031 967.9375 602.734375 973.476562 601.121094 C 974.269531 600.894531 975.046875 600.652344 975.828125 600.394531 C 976.570312 600.171875 977.289062 599.914062 978.007812 599.632812 C 978.628906 599.402344 979.238281 599.164062 979.847656 598.921875 C 980.058594 598.832031 980.257812 598.742188 980.46875 598.664062 C 981.070312 598.402344 981.667969 598.140625 982.257812 597.875 C 982.949219 597.550781 983.636719 597.222656 984.316406 596.882812 C 985 596.542969 985.675781 596.195312 986.335938 595.820312 C 987.007812 595.460938 987.667969 595.082031 988.316406 594.695312 C 988.890625 594.351562 989.449219 594.003906 990.007812 593.640625 C 990.40625 593.394531 990.808594 593.132812 991.199219 592.871094 C 991.527344 592.652344 991.847656 592.433594 992.167969 592.210938 C 992.847656 591.730469 993.527344 591.242188 994.1875 590.742188 L 994.199219 590.742188 C 994.929688 590.179688 995.648438 589.613281 996.347656 589.03125 C 996.699219 588.742188 997.046875 588.441406 997.398438 588.140625 C 997.648438 587.941406 997.890625 587.722656 998.128906 587.511719 L 998.128906 601.253906 L 1016.515625 601.253906 L 1016.515625 417.882812 L 998.128906 417.882812 "/>
<path style=" stroke:none;fill-rule:nonzero;fill:rgb(0%,0%,0%);fill-opacity:1;" d="M 795.730469 653.144531 C 795.730469 650.621094 793.765625 648.824219 790.472656 648.824219 L 781.671875 648.824219 L 781.671875 657.628906 L 790.472656 657.628906 C 793.722656 657.628906 795.730469 655.707031 795.730469 653.144531 M 795.261719 640.617188 C 795.261719 638.054688 793.253906 636.171875 789.960938 636.171875 L 781.671875 636.171875 L 781.671875 644.976562 L 789.960938 644.976562 C 793.253906 644.976562 795.261719 643.140625 795.261719 640.617188 M 789.960938 632.367188 C 795.261719 632.367188 799.277344 635.875 799.277344 640.617188 C 799.277344 643.527344 797.785156 645.617188 795.347656 646.816406 C 797.996094 647.882812 799.75 650.066406 799.75 653.144531 C 799.75 657.886719 795.773438 661.433594 790.472656 661.433594 L 777.652344 661.433594 L 777.652344 632.367188 "/>
<path style=" stroke:none;fill-rule:nonzero;fill:rgb(0%,0%,0%);fill-opacity:1;" d="M 809.230469 661.433594 L 813.25 661.433594 L 813.25 632.371094 L 809.230469 632.371094 Z M 809.230469 661.433594 "/>
<path style=" stroke:none;fill-rule:nonzero;fill:rgb(0%,0%,0%);fill-opacity:1;" d="M 830.003906 632.367188 L 839.578125 656.261719 L 849.238281 632.367188 L 855.136719 632.367188 L 855.136719 661.433594 L 851.121094 661.433594 L 851.121094 637.96875 L 841.628906 661.433594 L 837.441406 661.433594 L 828.121094 638.054688 L 828.121094 661.433594 L 824.105469 661.433594 L 824.105469 632.367188 "/>
<path style=" stroke:none;fill-rule:nonzero;fill:rgb(0%,0%,0%);fill-opacity:1;" d="M 887.214844 662.117188 C 881.148438 662.117188 876.574219 658.996094 875.675781 654.59375 L 879.480469 653.144531 C 880.292969 656.175781 883.285156 658.3125 887.515625 658.3125 C 891.574219 658.3125 894.308594 656.261719 894.308594 653.484375 C 894.308594 650.363281 890.890625 649.59375 886.402344 648.652344 C 882.128906 647.796875 876.914062 646.046875 876.914062 640.277344 C 876.914062 635.105469 881.1875 631.683594 887.257812 631.683594 C 892.945312 631.683594 897.089844 634.632812 898.03125 639.207031 L 894.226562 640.660156 C 893.585938 637.753906 891.019531 635.53125 887.089844 635.53125 C 883.625 635.53125 880.933594 637.285156 880.933594 640.019531 C 880.933594 643.054688 884.09375 644.039062 887.855469 644.890625 C 892.558594 645.917969 898.328125 647.285156 898.328125 653.226562 C 898.328125 658.398438 893.839844 662.117188 887.214844 662.117188 "/>
<path style=" stroke:none;fill-rule:nonzero;fill:rgb(0%,0%,0%);fill-opacity:1;" d="M 932.730469 646.902344 C 932.730469 640.535156 927.898438 635.53125 921.617188 635.53125 C 915.207031 635.53125 910.378906 640.535156 910.378906 646.902344 C 910.378906 653.269531 915.207031 658.3125 921.617188 658.3125 C 927.898438 658.3125 932.730469 653.269531 932.730469 646.902344 M 906.359375 646.902344 C 906.359375 638.4375 913.109375 631.683594 921.617188 631.683594 C 929.996094 631.683594 936.75 638.4375 936.75 646.902344 C 936.75 655.363281 929.996094 662.117188 921.617188 662.117188 C 913.109375 662.117188 906.359375 655.363281 906.359375 646.902344 "/>
<path style=" stroke:none;fill-rule:nonzero;fill:rgb(0%,0%,0%);fill-opacity:1;" d="M 946.144531 632.367188 L 950.164062 632.367188 L 950.164062 657.628906 L 965.082031 657.628906 L 965.082031 661.433594 L 946.144531 661.433594 "/>
<path style=" stroke:none;fill-rule:nonzero;fill:rgb(0%,0%,0%);fill-opacity:1;" d="M 995.25 632.367188 L 995.25 648.695312 C 995.25 656.773438 990.378906 662.117188 982.984375 662.117188 C 975.550781 662.117188 970.675781 656.773438 970.675781 648.695312 L 970.675781 632.367188 L 974.691406 632.367188 L 974.691406 648.695312 C 974.691406 654.507812 977.984375 658.3125 982.984375 658.3125 C 987.941406 658.3125 991.234375 654.507812 991.234375 648.695312 L 991.234375 632.367188 "/>
<path style=" stroke:none;fill-rule:nonzero;fill:rgb(0%,0%,0%);fill-opacity:1;" d="M 1024.996094 636.171875 L 1016.019531 636.171875 L 1016.019531 661.433594 L 1012.003906 661.433594 L 1012.003906 636.171875 L 1003.066406 636.171875 L 1003.066406 632.367188 L 1024.996094 632.367188 "/>
<path style=" stroke:none;fill-rule:nonzero;fill:rgb(0%,0%,0%);fill-opacity:1;" d="M 1033.109375 661.433594 L 1037.128906 661.433594 L 1037.128906 632.371094 L 1033.109375 632.371094 Z M 1033.109375 661.433594 "/>
<path style=" stroke:none;fill-rule:nonzero;fill:rgb(0%,0%,0%);fill-opacity:1;" d="M 1072.945312 646.902344 C 1072.945312 640.535156 1068.113281 635.53125 1061.832031 635.53125 C 1055.421875 635.53125 1050.59375 640.535156 1050.59375 646.902344 C 1050.59375 653.269531 1055.421875 658.3125 1061.832031 658.3125 C 1068.113281 658.3125 1072.945312 653.269531 1072.945312 646.902344 M 1046.574219 646.902344 C 1046.574219 638.4375 1053.328125 631.683594 1061.832031 631.683594 C 1070.210938 631.683594 1076.964844 638.4375 1076.964844 646.902344 C 1076.964844 655.363281 1070.210938 662.117188 1061.832031 662.117188 C 1053.328125 662.117188 1046.574219 655.363281 1046.574219 646.902344 "/>
<path style=" stroke:none;fill-rule:nonzero;fill:rgb(0%,0%,0%);fill-opacity:1;" d="M 1110.894531 632.367188 L 1110.894531 661.433594 L 1107.605469 661.433594 L 1090.378906 639.59375 L 1090.378906 661.433594 L 1086.359375 661.433594 L 1086.359375 632.367188 L 1089.566406 632.367188 L 1106.878906 654.296875 L 1106.878906 632.367188 "/>
<path style=" stroke:none;fill-rule:nonzero;fill:rgb(0%,0%,0%);fill-opacity:1;" d="M 1131.234375 662.117188 C 1125.164062 662.117188 1120.589844 658.996094 1119.695312 654.59375 L 1123.496094 653.144531 C 1124.3125 656.175781 1127.300781 658.3125 1131.53125 658.3125 C 1135.59375 658.3125 1138.328125 656.261719 1138.328125 653.484375 C 1138.328125 650.363281 1134.910156 649.59375 1130.421875 648.652344 C 1126.148438 647.796875 1120.933594 646.046875 1120.933594 640.277344 C 1120.933594 635.105469 1125.207031 631.683594 1131.277344 631.683594 C 1136.960938 631.683594 1141.109375 634.632812 1142.050781 639.207031 L 1138.246094 640.660156 C 1137.605469 637.753906 1135.039062 635.53125 1131.109375 635.53125 C 1127.644531 635.53125 1124.953125 637.285156 1124.953125 640.019531 C 1124.953125 643.054688 1128.113281 644.039062 1131.875 644.890625 C 1136.578125 645.917969 1142.347656 647.285156 1142.347656 653.226562 C 1142.347656 658.398438 1137.859375 662.117188 1131.234375 662.117188 "/>
</g>
</svg>
